<svg width="686" height="873" viewBox="0 0 686 873" fill="none" xmlns="http://www.w3.org/2000/svg">
<circle cx="405.145" cy="363.178" r="213.456" transform="rotate(36.6898 405.145 363.178)" fill="url(#paint0_linear_8_13)"/>
<circle cx="310.898" cy="515.121" r="213.456" transform="rotate(-143.31 310.898 515.121)" fill="url(#paint1_linear_8_13)"/>
<g clip-path="url(#clip0_8_13)">
<path d="M134.945 248.324C136.066 247.124 138.119 247.68 138.482 249.281L140.794 259.475C140.887 259.884 141.106 260.256 141.423 260.54L149.313 267.622C150.553 268.735 150.011 270.737 148.38 271.072L137.994 273.21C137.578 273.295 137.201 273.506 136.915 273.812L129.777 281.449C128.656 282.649 126.604 282.093 126.241 280.492L123.928 270.298C123.836 269.889 123.616 269.517 123.3 269.234L115.409 262.151C114.17 261.039 114.712 259.036 116.343 258.701L126.728 256.563C127.145 256.478 127.522 256.267 127.808 255.961L134.945 248.324L134.945 248.324Z" fill="white"/>
</g>
<g clip-path="url(#clip1_8_13)">
<path fill-rule="evenodd" clip-rule="evenodd" d="M577.163 771.523C573.559 772.506 569.839 773.003 566.104 773H521.396C498.28 773 479.541 791.739 479.541 814.854V864.319C479.541 867.295 479.23 870.199 478.64 873C477.656 869.396 477.16 865.677 477.163 861.941V817.233C477.163 794.117 458.424 775.378 435.309 775.378H385.843C382.926 775.379 380.017 775.077 377.163 774.477C380.767 773.494 384.487 772.997 388.223 773H432.93C456.046 773 474.785 754.261 474.785 731.146V681.68C474.785 678.704 475.095 675.8 475.686 672.999C476.669 676.604 477.166 680.324 477.163 684.06V728.767C477.163 751.883 495.902 770.622 519.018 770.622H568.482C571.458 770.622 574.362 770.932 577.163 771.523Z" fill="white"/>
<g clip-path="url(#clip2_8_13)">
<path d="M553.916 681.776C553.791 680.139 555.589 679.003 557.013 679.82L566.084 685.016C566.447 685.224 566.87 685.314 567.293 685.273L577.847 684.257C579.505 684.097 580.612 685.851 579.756 687.279L574.301 696.372C574.082 696.736 573.982 697.156 574.014 697.574L574.807 707.997C574.931 709.634 573.134 710.769 571.709 709.953L562.639 704.757C562.275 704.549 561.853 704.459 561.43 704.5L550.875 705.516C549.218 705.676 548.11 703.922 548.967 702.494L554.422 693.401C554.64 693.037 554.741 692.617 554.709 692.199L553.916 681.776L553.916 681.776Z" fill="white"/>
</g>
</g>
<g clip-path="url(#clip3_8_13)">
<path fill-rule="evenodd" clip-rule="evenodd" d="M332.163 162.523C328.559 163.506 324.839 164.003 321.104 164H276.396C253.28 164 234.541 182.739 234.541 205.854V255.319C234.541 258.295 234.23 261.199 233.64 264C232.656 260.396 232.16 256.677 232.163 252.941V208.233C232.163 185.117 213.424 166.378 190.309 166.378H140.843C137.926 166.379 135.017 166.077 132.163 165.477C135.767 164.494 139.487 163.997 143.223 164H187.93C211.046 164 229.785 145.261 229.785 122.146V72.68C229.785 69.704 230.095 66.8 230.686 63.999C231.669 67.6037 232.166 71.3237 232.163 75.06V119.767C232.163 142.883 250.902 161.622 274.018 161.622H323.482C326.458 161.622 329.362 161.932 332.163 162.523Z" fill="white"/>
</g>
<g clip-path="url(#clip4_8_13)">
<path d="M294.578 776.612C294.454 774.975 296.251 773.84 297.676 774.656L306.746 779.852C307.11 780.06 307.532 780.15 307.955 780.109L318.51 779.093C320.167 778.933 321.275 780.687 320.418 782.115L314.963 791.208C314.745 791.572 314.644 791.992 314.676 792.41L315.469 802.833C315.594 804.47 313.796 805.606 312.372 804.789L303.301 799.593C302.938 799.385 302.515 799.295 302.092 799.336L291.538 800.352C289.88 800.512 288.773 798.758 289.629 797.33L295.084 788.237C295.303 787.873 295.403 787.453 295.371 787.035L294.578 776.612L294.578 776.612Z" fill="white"/>
</g>
<defs>
<linearGradient id="paint0_linear_8_13" x1="405.145" y1="149.721" x2="405.145" y2="576.634" gradientUnits="userSpaceOnUse">
<stop/>
<stop offset="1" stop-color="#747474" stop-opacity="0"/>
</linearGradient>
<linearGradient id="paint1_linear_8_13" x1="310.898" y1="301.665" x2="310.898" y2="728.577" gradientUnits="userSpaceOnUse">
<stop/>
<stop offset="1" stop-color="#747474" stop-opacity="0"/>
</linearGradient>
<clipPath id="clip0_8_13">
<rect width="36.3868" height="35.5013" fill="white" transform="translate(119.436 243) rotate(15.1413)"/>
</clipPath>
<clipPath id="clip1_8_13">
<rect width="200" height="200" fill="white" transform="translate(377.163 673)"/>
</clipPath>
<clipPath id="clip2_8_13">
<rect width="36.3868" height="35.5013" fill="white" transform="translate(539.5 689.592) rotate(-32.2713)"/>
</clipPath>
<clipPath id="clip3_8_13">
<rect width="200" height="200" fill="white" transform="translate(132.163 64)"/>
</clipPath>
<clipPath id="clip4_8_13">
<rect width="36.3868" height="35.5013" fill="white" transform="translate(280.163 784.428) rotate(-32.2713)"/>
</clipPath>
</defs>
</svg>
